<svg xmlns="http://www.w3.org/2000/svg" width="800" height="400" viewBox="0 0 800 400" fill="none">
  <defs>
    <linearGradient id="g1" x1="0" y1="0" x2="0" y2="1">
      <stop offset="0%" stop-color="#0f52ba"/>
      <stop offset="100%" stop-color="#0c3e8c"/>
    </linearGradient>
    <linearGradient id="g2" x1="0" y1="0" x2="1" y2="1">
      <stop offset="0%" stop-color="#fef3c7"/>
      <stop offset="100%" stop-color="#fde68a"/>
    </linearGradient>
    <style>
      .node{fill:#fff;stroke:#0f52ba;stroke-width:2}
      .edge{stroke:#93c5fd;stroke-width:2;stroke-dasharray:4 6}
      .chip{fill:url(#g1)}
    </style>
  </defs>
  <rect width="800" height="400" rx="24" fill="url(#g2)" opacity="0.35"/>
  <g transform="translate(80,60)">
    <rect x="0" y="0" width="220" height="140" rx="12" class="chip"/>
    <rect x="16" y="18" width="188" height="16" rx="8" fill="#1e3a8a" opacity="0.25"/>
    <rect x="16" y="44" width="156" height="10" rx="5" fill="#ffffff" opacity="0.5"/>
    <rect x="16" y="62" width="172" height="10" rx="5" fill="#ffffff" opacity="0.4"/>
    <rect x="16" y="80" width="144" height="10" rx="5" fill="#ffffff" opacity="0.3"/>
  </g>
  <g transform="translate(520,70)">
    <circle cx="90" cy="90" r="70" fill="#e0f2fe"/>
    <circle cx="90" cy="90" r="54" fill="#fff" stroke="#0f52ba" stroke-width="2"/>
    <path d="M36 90h108M90 36v108M54 54l72 72M126 54l-72 72" class="edge"/>
    <circle cx="90" cy="90" r="6" fill="#0f52ba"/>
  </g>
  <g>
    <line x1="300" y1="110" x2="520" y2="170" class="edge"/>
    <line x1="300" y1="150" x2="520" y2="210" class="edge"/>
    <circle cx="300" cy="110" r="6" class="node"/>
    <circle cx="520" cy="170" r="6" class="node"/>
    <circle cx="300" cy="150" r="6" class="node"/>
    <circle cx="520" cy="210" r="6" class="node"/>
  </g>
</svg>
