<?xml version="1.0" standalone="no"?>
<!DOCTYPE svg PUBLIC "-//W3C//DTD SVG 20010904//EN"
 "http://www.w3.org/TR/2001/REC-SVG-20010904/DTD/svg10.dtd">
<svg version="1.0" xmlns="http://www.w3.org/2000/svg"
 width="1024.000000pt" height="1024.000000pt" viewBox="0 0 1024.000000 1024.000000"
 preserveAspectRatio="xMidYMid meet">

<g transform="translate(0.000000,1024.000000) scale(0.100000,-0.100000)"
fill="#000000" stroke="none">
<path d="M4805 9213 c-978 -81 -1845 -465 -2527 -1121 -699 -673 -1129 -1548
-1238 -2522 -99 -885 106 -1799 569 -2525 49 -76 93 -141 97 -142 5 -2 238
226 519 507 l510 510 -47 88 c-167 313 -277 722 -281 1042 -1 110 1 130 20
165 28 53 67 89 128 117 47 22 64 23 296 26 l246 4 7 56 c10 81 60 283 96 387
46 133 159 359 235 470 301 444 749 747 1259 850 289 58 582 51 866 -23 190
-49 185 -48 229 -19 77 51 103 168 54 236 -51 69 -178 122 -386 161 -324 61
-355 72 -394 130 -13 18 -27 49 -33 69 -6 23 -10 315 -10 789 l0 752 -87 -2
c-49 -1 -106 -3 -128 -5z"/>
<path d="M7885 5145 c-2 -5 -8 -68 -14 -140 -48 -530 -283 -1084 -635 -1497
-103 -121 -201 -164 -303 -133 -63 19 -182 101 -331 229 -67 58 -125 106 -127
106 -3 0 -47 -35 -97 -78 -262 -219 -593 -369 -940 -427 -135 -23 -390 -30
-533 -16 -890 90 -1605 732 -1781 1599 -14 70 -29 179 -32 242 l-7 115 -234 3
c-181 2 -236 -1 -243 -10 -23 -37 6 -274 57 -474 43 -166 109 -340 196 -518
58 -117 69 -146 69 -190 0 -114 -15 -132 -688 -815 l-423 -429 82 -101 c548
-683 1278 -1169 2084 -1390 725 -199 1443 -212 2140 -40 942 234 1807 834
2382 1653 250 356 452 796 573 1248 85 319 140 707 140 985 l0 95 -666 -4
c-433 -2 -667 -7 -669 -13z"/>
</g>
</svg>
